<?xml version="1.0" encoding="UTF-8" standalone="no"?>
<svg
   width="308.7612359841165"
   height="304.915625"
   viewBox="0 0 106.00782394174519 104.68749999999999"
   class="css-1j8o68f"
   version="1.1"
   id="svg23"
   sodipodi:docname="logo.png"
   xmlns:inkscape="http://www.inkscape.org/namespaces/inkscape"
   xmlns:sodipodi="http://sodipodi.sourceforge.net/DTD/sodipodi-0.dtd"
   xmlns="http://www.w3.org/2000/svg"
   xmlns:svg="http://www.w3.org/2000/svg">
  <sodipodi:namedview
     id="namedview25"
     pagecolor="#ffffff"
     bordercolor="#000000"
     borderopacity="0.25"
     inkscape:showpageshadow="2"
     inkscape:pageopacity="0.0"
     inkscape:pagecheckerboard="0"
     inkscape:deskcolor="#d1d1d1" />
  <defs
     id="SvgjsDefs2684" />
  <g
     id="SvgjsG2685"
     featurekey="rootContainer"
     transform="matrix(0.9820592540669653,0,0,0.9820592540669653,-0.054560523427421584,0)"
     fill="#ff4a3f">
    <g
       id="g17">
      <path
         d="M19.8 15.3h.5l-.4-.2zm.5.1zm.8-.7c0 .1 0 .1.1.1l.4-.3c-.2-.1-.3-.1-.5.2zm.4-.2zm-4.1 2.3zm-.2.6l.3-.2c.1-.1.1-.2.1-.2h-.2l-.2.4c-.1-.1-.1 0 0 0zm2.2-2.9h-.1l-.2.2h.3zm-2.1 2.4l.6-.5c.1-.1.1-.2.1-.3h-.3l-1.2 1.1-.2.4.7-.6zm-1.1.8z"
         id="path3" />
      <path
         d="M9.7 25v-.2a1.7 1.7 0 0 1 .7-1.1l.9-.6.5-.6.7-.7.4-.4.4-.3a1.9 1.9 0 0 0 .8-.9l.4-.5a5.9 5.9 0 0 0 1-1.3l.2-.3.3-.2-.2-.3.4-.5c.8-.6 1.4-1.4 2.2-2l.3-.3a1.4 1.4 0 0 1 .5-.6l.8-.4h.4a1.4 1.4 0 0 0 .7-.6V13a3.5 3.5 0 0 1 1.3-1.4l.8-.5.2-.2.4-.4 1-.5h.2l-1.1.4-1.4 1c-.6.5-1.4.6-1.8 1.4h.3c-.7.2-1.4.5-1.7 1.2s-.8.6-1.2.9a.4.4 0 0 0-.3.4c-.8-.1-1.1.5-1.5.9v.8a3.9 3.9 0 0 0-1.6 1.4c-1.6.1-1.6 2.1-3 2.5h-.1a.2.2 0 0 0 0 .2c-.3 0-.5.2-.4.5l-.2.5c-.7.4-.6 1.1-1 1.7-.8.5-1.1 1.5-1.7 2.2l.3.5.2-.2a11.6 11.6 0 0 1 .9-1.3zM53.9 3.3l.6.2h.2a2.2 2.2 0 0 0 1.4.2 4.1 4.1 0 0 1 1.9.1h1.2a1.4 1.4 0 0 1 1.2.3.1.1 0 0 1 0 .1H60a.1.1 0 0 0 0 .1h.7a1.8 1.8 0 0 1 1.3 0c.2 0 .1.1.2.2l.5.2h-.2c-.2-.4-.5-.4-.8-.4a9.7 9.7 0 0 0-4.3-.9h-.8A9.8 9.8 0 0 0 53 3h.2zm7.3 3.1zM50.3 4.7zm10.9 1.7h.2-.2zM19 14.7zm32.1-10zm17.6 2.2a.9.9 0 0 0 1 .2h.6a3.1 3.1 0 0 0-1.8-.7l-.7-.2.5.3zm-3.4-1.3c0 .1.1.2.2.3h.2l.5-.3a4.2 4.2 0 0 0-1.7-.6l.7.4zm7.4 2.7l.8.5c-.2-.3-.4-.5-.8-.5z"
         id="path5" />
      <path
         d="M99 76.1l.6-1.6.6-1.5c.2-.5.6-1.8.8-2.6a1.7 1.7 0 0 1 .3-.7h.1v-1.1c.5-.1.4-.6.5-.9l.8-4.7a12.7 12.7 0 0 0 0-6.2 1.9 1.9 0 0 0-.5-1.6v-4.3c-.3-.9.3-1.9-.4-2.7L101 45a.4.4 0 0 0 0-.2l-.2-.6a.5.5 0 0 1 0-.4h.1c.3 0 .3-.5.3-.9a3 3 0 0 0-.4-1.1l-.3-.4a1.1 1.1 0 0 1-.2-.7 6.7 6.7 0 0 0-.2-2v-.6c-.2-.7-.4-1.5-.6-2.2l-.2-.5a2.5 2.5 0 0 1-.4-1.1 2.5 2.5 0 0 0-.3-.8l-.6-1a.8.8 0 0 0-.6-.2h-.1V32h-.2v-.8H97V31a.4.4 0 0 0 0-.1v-.2c.1-.2.1-.3-.1-.5a1.8 1.8 0 0 1-.4-.6l-.2-.6a2.9 2.9 0 0 0-.7-1.2 2.2 2.2 0 0 1-.5-.7l-.7-1.6a4.3 4.3 0 0 0-.6-1l-.6-.8a2.4 2.4 0 0 1-.4-.8l-.2-.3a.6.6 0 0 1-.1-.5.5.5 0 0 0-.2-.4l-.4-.3v.2c.1.2 0 .3-.1.3h-.2l.3 1 .3.5.7.9h-.1l-.2-.2-.2-.2a1.3 1.3 0 0 0-1.2-1.1v-.7c-.3-1.2-1.6-1.3-2.2-2.1a1.5 1.5 0 0 0-1.1-.9l-.8-.9a11.3 11.3 0 0 0-3.1-3l-.8-.6-.4-.3c-.7-.7-1-1.8-2.2-1.8l-.8-.5-.9-.7a2.2 2.2 0 0 0-1.8-1.3 5.1 5.1 0 0 0-2.3-1.2l.2.2.5.4 1.3.7a8.5 8.5 0 0 1 2.1 1.6 6.8 6.8 0 0 0 1.5 1.1l.6.5c.1.1.2.2.1.3H81l-.9-.3a5.6 5.6 0 0 1-2-.8l-1.2-.6-1.3-.7h-.2c-.3-.1-.4-.4-.8-.5l-.8-.2-2.5-.5a2.6 2.6 0 0 1-.9-.7 1.7 1.7 0 0 1-.9-.3l-1-.4a18.1 18.1 0 0 1-2.8-.8l-.6-.2-1-.3h-.5l-.2-.3v-.1h-1.6l-.6-.5-.4.2-.4.2h-.2l-.9-.5c-.6.6-1.1-.2-1.6-.1l-1-.3a1.2 1.2 0 0 1-1.2 0h-1.2a.6.6 0 0 1-.5-.6l.3-.2h.6a.7.7 0 0 1 .1.3c0 .2.2.2.5.2h.2l-.4-.6a1.1 1.1 0 0 0-1-.2l-1 .3H53c.3.2.2.3.2.5h-1.6l-.4-.2-.8-.4h-.1l-.7-.2h-2.3l.4-.2.8-.2h.3l1.7-.3 1.1-.2.6-.2h-1.1a8.4 8.4 0 0 0-3.4 0h-1.3L43 3.6c-1.4.1-2.8 0-3.9 1.2-2.5-.4-4.7.7-6.9 1.8l-2.2.9a6.7 6.7 0 0 0-3.7 1.8h.3l.5-.3.8-.5 1.3-.6 1-.2a6 6 0 0 1 2-.9l.9-.3h.2c.1.2.5 0 .7 0h.2c.1 0 .1.1 0 .1l-.6.4 1-.3.8-.2-1.3.7-1.3.4a1 1 0 0 0-.6.5l-.3.5h.3l.4-.2a1.4 1.4 0 0 1 .9-.6l1.5-.5h.5a.1.1 0 0 1 .1.2c-.2.2-.6.3-.8.5h.2l-3.2.9-3.8 1.6a5.2 5.2 0 0 1-2.3 1.2 6.6 6.6 0 0 1-1.7 1.1l-.8.2a1.5 1.5 0 0 1-1.3.9l-.3.5a3.7 3.7 0 0 1-1.2 1.1h-.1v-.1l-.2.2-.2.2-1 .2h-.5l-.4.5c-.1.1-.1.2 0 .2h.1c-.6.6-1 1.4-1.8 1.7L15 19.9c-.6 1.2-1.8 1.6-2.6 2.6s-1.4 3.9-3.9 4.3l-.2-.3-.2.5a2.7 2.7 0 0 1-.4.8 16.9 16.9 0 0 0-1.2 2.1.8.8 0 0 0-.1.5 1.4 1.4 0 0 1-.2.8l-.5 1.1h.2c.3 0 .3.3.4.6l.8-1.1a2.2 2.2 0 0 1 .6-.7 2 2 0 0 0 .9-.9l.3-.3.4-.4.6-1.1h.2c.1.1.1.1.2 0l.2-.4h.5v.8l.5-.5a.5.5 0 0 0 0-.5.4.4 0 0 1 .1-.3 1.5 1.5 0 0 0 .3-.5 1.3 1.3 0 0 1 .8-.9l.3-.2.3-.3a2.4 2.4 0 0 0 .8-1l-.2-.3c0-.1.1-.3.2-.4h.5l.6-.8.6-.3h.2a48.8 48.8 0 0 0-5.5 7.2h-.1.1a48.4 48.4 0 0 0-5.3 11.2h-.5l-.5-.4c-.2-.2-.1-.7-.4-.9h.1c.3-.5-.1-1.2.3-1.7s.1-1.4-.9-1.2-1.5.5-1.3 1.5-1 1.8-1.1 2.9-.5.5-.3.9v3.9c.1.8-.5 1.8.8 2.1l1.3.9c.1.5-.5 1.6.9 1.3a49.2 49.2 0 0 0-.3 5c0 1.1.1 2.2.1 3.3v-.4c-.1-.4-.1-.8-.2-1.3l-.3.3v-.2h-.5c0 .5-.1.8-.4.9a.9.9 0 0 0-.1.5c0 .1.1.3.2.2s.4.2.7.4-.2.3-.4.2-.2.1-.2.3v.3l.5 1.5c0 .3-.1.6-.1.9a1.7 1.7 0 0 0 .2.8h-.3v-.3l-.7-.2v-.6a1.5 1.5 0 0 0 0-.5 14.6 14.6 0 0 1-.3-1.8 16.6 16.6 0 0 1-.2-3.5.9.9 0 0 1 .1-.5v.2a2.9 2.9 0 0 1 .1.5.8.8 0 0 0 .1.4c.1.2.2.4.4.4s.1-.1.1-.2a2.1 2.1 0 0 0-.1-.5 4.2 4.2 0 0 1-.3-1.3 1.5 1.5 0 0 0-.3-.7 1.6 1.6 0 0 1-.2-.9v-.8c0-.3.1-.6.1-.9a.5.5 0 0 0-.1-.4h-.1c-.8.4-.7.2-1 1.6V55c0 .7-.1 1.4 0 2.1a10.8 10.8 0 0 0 .2 2.3 1.8 1.8 0 0 1 0 .5 3.1 3.1 0 0 0 .1.9 5.9 5.9 0 0 1 .1 1.3 3.9 3.9 0 0 0 .2 1.7 1.2 1.2 0 0 1 0 .4 2.1 2.1 0 0 0 .1.8 4.9 4.9 0 0 1 .2.9 14 14 0 0 0 .5 2.2 5 5 0 0 1 .2 1 1.7 1.7 0 0 0 .3.7 2.9 2.9 0 0 1 .5 1.2 8.5 8.5 0 0 0 .3 1l.4 1.4a5.4 5.4 0 0 0 .6 1.5 8.5 8.5 0 0 1 .8 2.1l.2.5a2.1 2.1 0 0 1 .5 1 2.1 2.1 0 0 0 .4.8 1 1 0 0 1 .2.5c.1.3.2.4.4.3h.1v.9l.5 1 .5 1 1.1 1.2.4.4c.3.3.7.5.9 1l.4.3a.7.7 0 0 1 .3.5l.2.7a3.3 3.3 0 0 0 .6.9l.4.2h.3a.2.2 0 0 1 .1.3 2.5 2.5 0 0 0 0 .5.9.9 0 0 0 .4.5h.2c.4-.1.8.2 1.2.7h.1c0-.1.1-.1 0-.2v-.2c0-.1.1-.2.2-.1a.7.7 0 0 1 .3.6v.2a4.3 4.3 0 0 0 .4 1.2c.5.3.5.3.5.1s0-.2.2-.2h.4l.2.3.8.5c.7.8 1.8.7 2.6 1.2l1.7 1.7h.2a2.9 2.9 0 0 0 1.6 1.6 1.3 1.3 0 0 0 1 .6c0 .5.6.6 1.1.7a1.2 1.2 0 0 0 .8.4h.2a1.7 1.7 0 0 0 1.5.5l.9.8 2.4.9v.2c.5 1.1 1.7.7 2.5 1l1.1.4h.4c1.2.3 2.4.9 3.7.5a.7.7 0 0 0 0 .4c1.1.7 2.4 0 3.6.4a2.9 2.9 0 0 0 1.7.1h.1l.8.2h.3l.9.2h.3a.5.5 0 0 1 .5 0 7.9 7.9 0 0 0 1.5.4h.6a.7.7 0 0 1 .7 0h3.9a5 5 0 0 0 1.6-.1h1l.5-.2H60l.6-.2.5-.3h2.2v.6H62l-1.2.2c-.4.1-.7 0-1 .1a2.4 2.4 0 0 1-1 .2l-1.3.3h-.4a3.1 3.1 0 0 0-1.5.1h-1.8a1.1 1.1 0 0 1-.9 0h-4.5a1.3 1.3 0 0 0-1.1.3H47l-.3-.2v-.3h-1.2a4.1 4.1 0 0 0-1.3-.3h-2.5l-.7-.2-.5-.2-2.1-.4h-.5l-.5-.2-2.1-.7-1.4-.4h-2.2c-.1 0-.1.1-.1.2h.2c1.3.5 2.6.9 3.9 1.5h.3l.9.2 1.4.4h1.3l.6.2.7.3 1.7.3 1.1.2 1.1.2h.8l.8.2h3.1l1 .2h2.3l1-.2H56c.4 0 .6-.1.7-.3h1a1 1 0 0 0 .8-.3c-.1.1 0 .1.1.2h.4v-.2c0-.1 0-.1.2-.2s.6-.1.7.1h.4l.3-.2c.2 0 .2 0 .2.1h.7l.5-.2.8-.4c.1.3.4.4 1.3.2l1.3-.4h1.2c.9-.1 2 0 2.7-.7h.2l.4-.3 1.1-.3a6.1 6.1 0 0 0 2-.8l.4-.2h.1l.9-.6.4-.2.5-.2h.4c.4-.1.4-.1.5-.4s0-.1-.2-.1h-.1l.4-.5h.2c.3-.1.5-.2.7-.1h.2a1.3 1.3 0 0 0 .9-.9c.3-.4 1.1-.2 1.3-.8l4.3-3.1c1.1-.1 1.4-1.1 2.2-1.7s2.3-1.1 3-2.2l.9-.4h.1a1 1 0 0 0 1.2-.7v.4c.8-.4 1.8.3 2.6-.5s0-2.7 1-3.8l.7-.5a12.1 12.1 0 0 0 1.5-4.2l.2-.2c0-.3 0-.7.4-.9a.9.9 0 0 0 .2-1.2h-.2a.3.3 0 0 0 0-.3c.7 0 .8-.7 1.2-1V77a.5.5 0 0 1 0-.2 3.8 3.8 0 0 0 .1-.7zM5.9 32.2z"
         id="path7" />
      <path
         d="M26.4 9.3l-.3.2-.4.3.5-.2zm6.1-2h.1l.3-.2h-.4zm-2.6 1l-.1.1h.1v-.1zm-1.5 1.4zm1.3-.2zm-6.3 3.1zM9.2 26.2l-.4.4H9a.4.4 0 0 0 .2-.4zm3-3.5a2.1 2.1 0 0 0 .3-.6 1.5 1.5 0 0 0-.5.5c-.1.1-.1.2 0 .2zM11 24.2V24c-.2 0-.5.3-.8.3v.2c.3.3.4.2.8-.3zm3 66.2zM73.9 9.2h.1l-.5-.3zm-2.5-1.4c.5-.1.8.4 1.2.5h.1l-.3-.2-1-.5-1.1-.5.3.2zM52.8 3.1zm11.7 2h-.1l-1.2-.2h.5zm2 .7l1.3.4a3.3 3.3 0 0 0-1.3-.4zm-9 0a1 1 0 0 0 .2-.5h-.5l-.3.3.4.3zm9 1.6zM49.9 4.2zm2.9.7zM48.5 4zm13.8 2.1a.5.5 0 0 0 0 .1zm44.8 52.3h-.3V58h.3c.1 0 .2-.3.1-.4s-.1-.7-.3-.8a.3.3 0 0 1-.2-.3l.2-.4a.4.4 0 0 0 0-.2h-.2l-.2-.3c-.1.3-.2.6-.4.7a.5.5 0 0 0 0 .2c0 .1 0 .2-.1.2h-.1a1.1 1.1 0 0 1-.1.3 2.3 2.3 0 0 0-.4.9.4.4 0 0 0 .1.4h.1a1.7 1.7 0 0 0-.1.8v.4a1.8 1.8 0 0 1-.1.5h-.1l-.4.7v.6a1.5 1.5 0 0 1-.3 1.1h-.2l-.2-.2a.9.9 0 0 1-.1-.8 6.5 6.5 0 0 0 .1-1.7c0-.1-.1-.2-.1-.2a.5.5 0 0 0-.1.3v.6c0 .2-.1.6-.3.7s-.1.2-.1.3l-.2.6.3.5c-.2.2-.4.1-.5-.1v1h.3v.4a4.2 4.2 0 0 0-.3 1.4 3.3 3.3 0 0 0 0 .4 4 4 0 0 1-.2 1.3 2 2 0 0 0 0 .6l-.3.7a3.2 3.2 0 0 1-.3.7l-.3.6-.9 2.7c.3.9-.4 1.5-.8 2.1a2.7 2.7 0 0 1-.8 2.3v.4c0 .1.1.2.3.1l.4-.3.2-.4h.2c.1.1.2.1.4-.1h.2a.5.5 0 0 1 .1.6 2.9 2.9 0 0 0-.1.8c0 .1 0 .2.1.2h.2c.1.1.2 0 .3-.3l.2-.5h.3c.4-.1.4-.1.6-.6l.5-.9.3-.6.4-1a1.6 1.6 0 0 1 .3-1 .6.6 0 0 0 .1-.6c0-.2 0-.3.2-.6l.3-.4.5-1a4.7 4.7 0 0 1 .2-.9 3 3 0 0 0 .3-1.3 3.8 3.8 0 0 1 .3-.9v-.5c-.1-.2-.1-.2 0-.6s.1-.2.2-.2a.4.4 0 0 1 .1.3l.2-.5a2.3 2.3 0 0 0 .2-.9v-.3c0-.1 0-.3-.1-.3v.4c-.2 0-.3.2-.5.3a6.4 6.4 0 0 0 .1-.8l.4-.2a.7.7 0 0 0 .2-.6 1.4 1.4 0 0 1 0-.3 4.8 4.8 0 0 0 .2-1.4v-.2l.3-1h.1a.3.3 0 0 0 .1-.3h-.1a.9.9 0 0 1 .2-.8 1.5 1.5 0 0 0-.9-1zm-1.2 7.8zm-.2-9.9zm0 0zM9.1 30.8a.3.3 0 0 0 0-.2l-.2-.2-.2.2-.3.6c0 .3-.3.6-.3.9v.2h.1zm96.3 24.8h.1a1.7 1.7 0 0 0 .2-1.2.5.5 0 0 1 .2-.5h.1v-.2l-.2-.2h-.1c-.1.1-.2.3-.3.3s-.1.1-.1.3v.3a2.2 2.2 0 0 0 .1 1.2zM13.2 90.1c-.1 0 0 .2 0 .3l.8.8h.1c-.2-.3-.3-.6-.2-.7a.9.9 0 0 1-.5-.2zm.8.3zm92.3-35.7h.1a2 2 0 0 0 0-.6c-.3.1-.3.1-.3.6s.1.1.2 0z"
         id="path9" />
      <path
         d="M106.7 62a.6.6 0 0 0 .1-.5c0-.1-.1-.2-.1-.1h-.2v.2c0 .4.1.5.2.4zm.1-8.2h-.1v.6a1 1 0 0 0 .1-.6zM17.1 92.6h-.2v.2l.2.2h.2v-.2zm86.6-33.3c0-.1 0-.1-.1-.1zM9.9 86.5l.5.5-.4-.6z"
         id="path11" />
      <circle
         cx="10.5"
         cy="87.1"
         transform="rotate(-24.8 10.4 87.159)"
         id="circle13" />
      <path
         d="M9.7 30.1h-.1v.2-.2h.1zm83.2-6.6l-.2-.3h-.1zm-14.7 77.1zM5.9 32.2zm-.1.2a.3.3 0 0 0 .1-.2v.2zm1.9-4.9zM61.5 2.4zm42.8 58.2v.1-.1zM16.4 92.5h-.1c.1.1.2 0 .1-.1zm.2.7h.1l-.1-.1v.1zm73.9-71.3zm15.2 34.4zM14.6 91.7zm92.1-37zm-.8 11.4zM34.6 0z"
         id="path15" />
    </g>
  </g>
  <g
     id="SvgjsG2686"
     featurekey="nameFeature-0"
     transform="matrix(2.284354285447385,0,0,2.284354285447385,27.980055421585643,-5.609520280720151)"
     fill="#ffffff">
    <path
       d="M 2001.34 933.6 C 2002 1373.25 2002 1812.5 2002 2251.87 C 1335.55 2251.87 669.093 2251.87 2 2251.87 C 2 1851.29 2 1450.58 2 1048.94 C 7.24426 1043.79 9.84695 1047.85 12.1891 1051.52 C 15.7746 1057.13 18.9805 1063.01 22.0386 1068.91 C 55.6419 1133.74 82.573 1200.94 94.0433 1273.57 C 95.1974 1280.88 95.7301 1288.1 93.2822 1295.28 C 91.199 1301.4 87.5773 1305.9 80.9041 1306.88 C 72.9224 1308.07 69.4765 1312.78 69.1485 1320.52 C 68.0223 1347.09 70.7807 1372.75 81.3036 1397.77 C 116.19 1480.7 155.935 1561.52 188.581 1645.4 C 197.641 1668.68 206.656 1692.01 213.916 1715.95 C 216.462 1724.34 221.09 1730.18 229.22 1734.46 C 245.801 1743.18 255.373 1757.58 258.93 1776.05 C 262.017 1792.08 265.301 1808.03 270.402 1823.62 C 278.689 1848.96 290.374 1872.36 308.06 1892.39 C 331.647 1919.1 360.716 1934.65 397.103 1935.07 C 414.396 1935.27 431.696 1933.99 448.994 1936.5 C 468.037 1939.27 484.713 1946.65 499.348 1959.01 C 528.395 1983.53 562.653 1993.89 599.97 1994.77 C 611.273 1995.03 621.164 1997.15 631.282 2002.52 C 669.825 2022.98 709.044 2042.16 747.075 2063.6 C 757.543 2069.51 767.341 2076.43 777.622 2082.61 C 783.999 2086.44 790.268 2087.76 797.462 2084.23 C 806.278 2079.91 810.969 2082.65 812.712 2092.35 C 813.006 2093.99 812.87 2095.68 813.034 2097.34 C 813.951 2106.57 816.732 2109.33 825.881 2108.25 C 845.063 2106 864.218 2103.45 883.473 2101.97 C 926.265 2098.68 968.973 2095.27 1012.07 2098.27 C 1045.12 2100.57 1077.62 2104.85 1109.56 2113.58 C 1114.78 2115.01 1120.11 2115.19 1125.4 2113.94 C 1155.64 2106.82 1184.22 2111.37 1211.47 2125.87 C 1219.71 2130.25 1228.15 2134.23 1236.22 2138.92 C 1241.45 2141.96 1246.97 2144.26 1253.03 2145.02 C 1262.54 2146.23 1266.34 2143.78 1266.84 2134.22 C 1267.21 2127 1270.88 2123.54 1276.8 2120.89 C 1300.8 2110.17 1326.52 2105.99 1352.08 2101.44 C 1359.77 2100.07 1366.07 2104.85 1371.73 2109.72 C 1377.59 2114.75 1381.71 2121.34 1387.01 2126.87 C 1389.73 2129.71 1392.35 2133.63 1396.97 2132.01 C 1401.2 2130.53 1400.72 2126.13 1400.98 2122.55 C 1401.31 2117.88 1402.25 2113.29 1403.19 2108.74 C 1406.02 2094.96 1415.1 2087.46 1429.09 2087.04 C 1436.09 2086.83 1443.09 2087.21 1450.08 2086.73 C 1458.01 2086.19 1463.55 2081.77 1462.46 2074.08 C 1459.63 2054.06 1471.05 2041.98 1483.87 2029.59 C 1495.33 2018.5 1505.74 2006.3 1516.23 1994.23 C 1528.3 1980.34 1541.76 1967.93 1557.1 1957.71 C 1567.14 1951.02 1570.98 1951.64 1579.93 1959.79 C 1584.55 1964 1587.79 1969.61 1595.33 1974.73 C 1593.59 1962.55 1588.61 1954.46 1582.36 1946.91 C 1577.71 1941.29 1572.07 1936.63 1568.4 1930.04 C 1564.43 1922.91 1566.01 1917.51 1572.72 1914.56 C 1587.36 1908.13 1602.58 1903.13 1618.54 1901.11 C 1625.75 1900.19 1632.44 1902.34 1638.48 1906.24 C 1635.19 1898 1637.47 1891.94 1644.79 1886.74 C 1653.12 1880.81 1662.09 1878.94 1672.04 1878.93 C 1708.22 1878.89 1715.13 1872.7 1718.92 1837.09 C 1719.46 1832.06 1721.82 1828.5 1724.84 1824.83 C 1748.97 1795.53 1774.13 1767.03 1795.86 1735.83 C 1844.09 1666.57 1881.55 1591.68 1911.81 1513.05 C 1912.26 1511.88 1913 1510.65 1911.66 1508.5 C 1898.05 1518.84 1886.56 1531.21 1875.35 1543.82 C 1866.71 1553.56 1859.97 1564.74 1852.64 1575.45 C 1845.31 1586.16 1837.4 1595.81 1822.29 1594.47 C 1817.8 1594.07 1815.27 1597.75 1813.64 1601.65 C 1811.71 1606.26 1810.42 1611.12 1808.41 1615.7 C 1807.43 1617.94 1806.22 1620.07 1803.06 1620.01 C 1799.73 1619.94 1798.55 1617.84 1797.65 1615.24 C 1797.32 1614.3 1797.3 1613.28 1797.13 1612.3 C 1795.49 1603.35 1794.97 1603.05 1787.94 1608.67 C 1767.91 1624.69 1747.47 1640.17 1727.1 1655.74 C 1669.15 1700.02 1610.88 1743.86 1551.09 1785.65 C 1511.23 1813.52 1470.99 1840.81 1430.01 1867.01 C 1424.65 1870.44 1419.23 1873.77 1413.06 1875.39 C 1400.87 1878.58 1389.26 1878.61 1379.98 1868.14 C 1374.55 1862.02 1368.79 1861.57 1362.73 1867.33 C 1360.55 1869.4 1357.96 1870.96 1355.61 1872.81 C 1349.59 1877.56 1343.1 1880.9 1335.35 1877.78 C 1326.93 1874.4 1327.02 1866.63 1325.93 1858.56 C 1310.72 1855.29 1297.91 1855.85 1291.78 1872.76 C 1289.88 1878 1284.96 1879.96 1279.41 1876.76 C 1277.33 1875.56 1274.83 1873.88 1273.1 1876.14 C 1265.59 1885.91 1250.79 1885.54 1244.56 1897.88 C 1241.83 1903.3 1235.57 1900.02 1232.28 1895.5 C 1227.11 1888.37 1221.98 1881.21 1217.43 1873.65 C 1220.78 1886.71 1220.01 1889.21 1209.88 1895.59 C 1206.63 1897.64 1205.32 1900.65 1205.41 1903.99 C 1205.62 1911.66 1201.8 1916.26 1195.45 1919.82 C 1191.41 1922.08 1187.54 1925.02 1184.73 1928.74 C 1175.08 1941.53 1161.7 1946.06 1146.43 1946.93 C 1113.06 1948.85 1080.23 1954.27 1047.92 1962.68 C 1038.62 1965.1 1029.7 1965.11 1020.36 1962.75 C 952.077 1945.5 882.733 1934.23 812.67 1927.61 C 782.84 1924.78 752.944 1923.39 723.795 1915.38 C 686.194 1905.04 651.113 1889.27 618.328 1868.33 C 609.17 1862.48 609.358 1858.55 618.01 1852.06 C 622.498 1848.7 627.234 1845.5 629.087 1838.2 C 616.799 1842.37 605.029 1845.17 593.132 1847.52 C 585.013 1849.13 578.858 1847.01 573.25 1841.4 C 558.407 1826.56 543.092 1812.22 527.826 1797.81 C 490.042 1762.16 451.48 1727.34 413.814 1691.57 C 363.821 1644.11 314.727 1595.77 267.729 1545.2 C 235.72 1510.76 216.142 1470.38 199.339 1427.77 C 192.616 1410.72 185.524 1393.82 178.661 1376.82 C 175.4 1368.75 171.16 1363.87 161.382 1366.32 C 154.214 1368.12 148.458 1364.97 144.337 1358.75 C 137.53 1348.48 132.371 1338.08 136.738 1325.1 C 139.114 1318.04 143.428 1312.85 150.383 1312.15 C 158.575 1311.32 159.358 1307.37 158.36 1300.78 C 153.269 1267.19 149.448 1233.39 143.573 1199.95 C 139.245 1175.31 140.458 1152.17 154.049 1130.67 C 169.759 1105.82 169.699 1077.36 172.678 1049.7 C 176.954 1009.98 181.353 970.28 185.868 930.594 C 189.215 901.167 191.228 871.591 196.341 842.348 C 207.421 778.979 228.755 719.448 261.667 664.128 C 295.489 607.28 338.409 557.859 385.71 511.979 C 423.484 475.339 462.078 439.581 501.382 404.603 C 521.711 386.512 546.649 375.388 569.702 361.431 C 610.175 336.926 650.599 312.302 692.149 289.673 C 762.632 251.286 836.332 222.038 917.198 214.854 C 945.658 212.326 974.107 209.003 1002.84 212.61 C 1015.7 214.225 1028.79 213.273 1041.63 210.501 C 1053.4 207.958 1061.65 201.282 1064.95 189.675 C 1068.07 178.718 1069.14 167.483 1066.97 156.061 C 1065.97 150.763 1063.46 147.791 1058.01 146.985 C 1045.7 145.167 1035.51 139.076 1026.53 130.746 C 1022.85 127.337 1018.79 124.423 1014.82 121.383 C 1001.62 111.268 988.179 109.139 971.879 115.448 C 934.91 129.757 897.419 142.722 861.303 159.18 C 841.244 168.321 822.299 179.461 804.15 191.955 C 801.953 193.467 799.804 195.081 797.471 196.343 C 789.899 200.439 785.469 197.835 785.171 189.058 C 784.967 183.053 787.113 177.222 786.721 171.169 C 786.058 160.92 780.813 158.039 772.219 163.44 C 766.528 167.017 762.03 172.016 757.416 176.816 C 744.907 189.828 731.311 201.549 716.528 211.909 C 708.564 217.491 699.998 220.214 690.161 218.583 C 646.684 211.372 614.663 230.67 588.598 263.069 C 581.49 271.904 575.166 281.56 572.18 292.624 C 569.583 302.245 563.385 304.84 554.46 305.06 C 536.769 305.497 519.122 304.782 501.642 302.34 C 483.95 299.868 468.534 304.382 455.083 315.59 C 432.818 334.14 411.507 353.746 390.346 373.567 C 357.499 404.332 326.28 436.715 294.019 468.049 C 280.777 480.911 270.219 495.29 265.737 513.182 C 255.899 552.452 229.012 579.488 201.038 606.023 C 162.207 642.856 119.881 676.272 90.1926 721.984 C 66.563 758.368 53.0539 798.542 43.2869 840.272 C 30.3611 895.497 24.0552 951.849 15.1751 1007.76 C 13.9204 1015.66 12.3895 1023.52 10.7037 1031.32 C 9.93705 1034.87 10.3308 1040.92 2.64321 1038.4 C 2 692.743 2 347.486 2 2.11442 C 668.443 2.11442 1334.89 2.11442 2002 2.11442 C 2002 308.708 2002 615.417 2002 923.063 C 1995.76 934.592 1987.21 943.593 1981.11 954.294 C 1979.8 956.599 1977.65 958.344 1975.58 960.032 C 1971.89 963.052 1967.73 963.516 1963.39 961.729 C 1959.2 960.001 1959.16 956.075 1959.08 952.446 C 1958.74 935.142 1958.11 917.858 1957.37 900.563 C 1955.43 855.231 1949.63 810.355 1944.07 765.425 C 1941.62 745.599 1938.87 725.807 1936.83 705.934 C 1935.86 696.475 1933.1 687.797 1928.03 679.677 C 1865.02 578.773 1802.03 477.856 1738.81 377.084 C 1716.91 342.167 1686.63 314.9 1654.55 289.725 C 1604.83 250.704 1549.7 221.431 1490.03 200.671 C 1459.15 189.927 1428.06 179.765 1395.32 176.571 C 1376.84 174.768 1358.36 172.92 1339.61 174.605 C 1323.04 176.092 1306.29 175.215 1289.64 174.924 C 1275.44 174.676 1264.17 179.524 1256.62 191.686 C 1252.62 198.127 1247.62 199.216 1240.48 197.548 C 1222.74 193.407 1204.62 193.589 1186.85 196.661 C 1154.34 202.28 1143.14 234.953 1164.83 260.166 C 1177.84 275.294 1194.1 286.289 1212.16 294.638 C 1239.81 307.422 1269.27 312.752 1299.35 314.49 C 1310.15 315.114 1319.32 318.611 1328.38 323.802 C 1409.44 370.263 1486.3 423.101 1561.88 477.865 C 1597.77 503.868 1634.09 529.276 1670.01 555.218 C 1683.58 565.021 1696.68 565.622 1711.26 559.287 C 1719.52 555.695 1727.29 551.093 1735.57 547.577 C 1744.87 543.627 1749.59 546.016 1748.75 556.049 C 1745.39 596.518 1759.96 632.684 1774.54 668.922 C 1781.17 685.392 1791.43 698.946 1806.24 709.121 C 1820.53 718.936 1834.76 728.973 1843.18 744.929 C 1855.75 768.753 1858.23 793.977 1851.29 819.597 C 1846.99 835.464 1848.73 848.76 1856.79 863.341 C 1871.06 889.159 1886.88 913.609 1906.49 935.636 C 1912.32 942.185 1919.03 947.672 1926.32 952.324 C 1934.76 957.716 1938.1 965.513 1938.93 974.896 C 1939.22 978.213 1939.12 981.579 1940.01 984.815 C 1942.27 992.974 1947.49 995.321 1955.2 991.713 C 1966.43 986.458 1969.47 988.24 1968.85 1000.58 C 1968.33 1010.89 1966.56 1021.1 1965.19 1031.33 C 1961.13 1061.59 1960.01 1091.97 1961 1110.51 C 1960.49 1083.74 1967.36 1045.88 1974.63 1008.14 C 1978.99 985.574 1984.35 963.16 1992.44 941.569 C 1993.78 937.99 1993.34 931.398 2001.34 933.6 Z"
       id="path20" />
  </g>
</svg>
